<svg width="146" height="32" viewBox="0 0 146 32" fill="none" xmlns="http://www.w3.org/2000/svg">
<path d="M33.1492 26.2057L35.8771 6.70864C37.3968 6.55734 39.5154 6.48169 42.2331 6.48169C44.6153 6.48169 46.265 6.85994 47.1823 7.613C48.0996 8.36607 48.4214 9.72433 48.1373 11.6809C47.9319 13.0942 47.528 14.1499 46.929 14.8445C46.3301 15.5425 45.4367 15.9483 44.2559 16.0583L44.2285 16.1993C46.8161 16.4056 47.8669 18.1593 47.3774 21.457C47.0762 23.417 46.4396 24.734 45.4641 25.4114C44.4886 26.0888 42.8765 26.4293 40.6278 26.4293C37.3489 26.4327 34.8571 26.357 33.1492 26.2057ZM36.2159 24.005L40.2102 24.0325C41.747 24.0325 42.8252 23.8124 43.4447 23.3689C44.0642 22.9253 44.4681 22.0553 44.6529 20.7555C44.8412 19.3628 44.694 18.4241 44.2183 17.9427C43.7391 17.4613 42.7431 17.2137 41.2234 17.1931H37.1743L36.2159 24.005ZM37.4823 15.0164H41.3637C42.7123 15.0164 43.6843 14.7894 44.2764 14.339C44.8686 13.8885 45.2553 13.0392 45.4436 11.7944C45.6113 10.6081 45.4607 9.82749 44.9918 9.44924C44.5229 9.07443 43.5577 8.8853 42.0962 8.8853H38.3278L37.4823 15.0164Z" fill="#47A138"/>
<path d="M60.377 12.417H63.2179C62.2047 16.901 60.8836 20.6973 59.2509 23.8058C57.7894 26.5945 56.3382 28.5718 54.9041 29.7409C53.47 30.91 51.7586 31.6631 49.77 32.0001L49.2634 30.0504C50.4648 29.7684 51.5122 29.3454 52.4123 28.7781C53.3125 28.2141 54.175 27.3545 54.9999 26.206H53.7335C53.3022 26.206 52.936 26.0891 52.6382 25.8518C52.337 25.618 52.1488 25.2913 52.0769 24.8752L49.4346 12.4136H52.3062L54.3872 23.5754C54.442 23.8952 54.6303 24.0568 54.9486 24.0568H56.3279C56.4032 23.9261 56.5059 23.7301 56.636 23.4791C56.766 23.2247 56.8516 23.0596 56.8893 22.984C58.539 19.5384 59.7027 16.0173 60.377 12.417Z" fill="#47A138"/>
<path d="M68.8139 14.5351L67.7152 22.2789C67.6228 22.9391 67.6809 23.3861 67.8966 23.62C68.1122 23.8572 68.5469 23.9741 69.2041 23.9741H71.2577L71.3706 26.0923C70.5458 26.3365 69.4779 26.4603 68.1635 26.4603C66.9451 26.4603 66.0688 26.1199 65.5349 25.4424C65.001 24.765 64.8161 23.7953 64.9873 22.5334L66.1133 14.5351H63.6113L63.8646 12.5579L66.4248 12.4169L67.0169 8.37646H69.6901L69.1288 12.4169H73.349L73.0683 14.5351H68.8139Z" fill="#47A138"/>
<path d="M84.651 23.9192L84.8187 25.7555C83.4873 26.2816 81.6013 26.5464 79.1644 26.5464C76.8198 26.5464 75.1974 25.9308 74.2973 24.6964C73.3971 23.4619 73.1164 21.5466 73.4518 18.947C73.8078 16.2923 74.5334 14.4767 75.6321 13.507C76.7274 12.5373 78.5346 12.0525 81.0469 12.0525C83.1861 12.0525 84.6373 12.4307 85.4074 13.1838C86.1775 13.9369 86.4582 15.0475 86.2528 16.5193C86.0269 17.8569 85.5032 18.8232 84.6784 19.4146C83.8535 20.0095 82.5871 20.3706 80.8826 20.5012L76.1284 20.9242C76.1079 22.224 76.3817 23.1043 76.943 23.5651C77.5043 24.0258 78.3874 24.2562 79.5854 24.2562C80.862 24.2562 82.5494 24.1462 84.651 23.9192ZM76.2961 18.8885L80.8826 18.4656C81.7451 18.4105 82.3749 18.2249 82.7685 17.9154C83.1621 17.6059 83.4154 17.0626 83.5283 16.2889C83.6413 15.4052 83.4941 14.8584 83.0937 14.6487C82.6898 14.4423 81.8717 14.3392 80.6327 14.3392C79.2089 14.3392 78.1992 14.6349 77.6104 15.2298C77.0149 15.8212 76.5768 17.042 76.2961 18.8885Z" fill="#47A138"/>
<path d="M92.5538 6.42676L91.794 12.1349C91.6263 13.3797 91.3799 14.4319 91.0615 15.2985C91.9617 14.3941 92.9509 13.6307 94.029 13.0083C95.1072 12.3859 96.1066 12.0764 97.0239 12.0764C98.1123 12.0764 98.9475 12.2793 99.5259 12.6851C100.108 13.0908 100.519 13.8439 100.765 14.9443C101.008 16.0446 100.97 17.5576 100.652 19.4798C100.447 21.0238 100.156 22.2823 99.7792 23.252C99.4027 24.2217 98.9167 24.9438 98.3177 25.4149C97.7187 25.886 97.1095 26.1955 96.49 26.3468C95.8705 26.4981 95.073 26.5738 94.1009 26.5738C91.8145 26.5738 89.5076 26.2333 87.1802 25.5559L89.8533 6.42676H92.5538ZM91.0068 17.4476L90.0792 24.2286C91.4278 24.2836 92.4306 24.3146 93.0878 24.3146C94.8676 24.3146 96.0416 24.0292 96.6029 23.4515C97.1643 22.8772 97.5955 21.488 97.8967 19.2838C98.1603 17.231 98.1876 15.9105 97.9823 15.326C97.7769 14.7414 97.243 14.4491 96.3804 14.4491C95.049 14.4525 93.2589 15.4498 91.0068 17.4476Z" fill="#47A138"/>
<path d="M114.213 26.2057H112.074L112.187 23.6611C110.537 25.5833 108.569 26.5427 106.279 26.5427C104.609 26.5427 103.486 25.996 102.904 24.9025C102.322 23.809 102.22 21.8868 102.596 19.1393C102.801 17.6126 103.092 16.3643 103.469 15.3946C103.845 14.4249 104.342 13.7028 104.961 13.2317C105.581 12.7606 106.217 12.4443 106.875 12.2861C107.532 12.1279 108.374 12.0454 109.407 12.0454C111.639 12.0454 113.881 12.2896 116.13 12.7813L114.213 26.2057ZM112.159 21.2335L113.145 14.394C111.42 14.3562 110.455 14.339 110.249 14.339C109.274 14.339 108.535 14.3871 108.028 14.48C107.521 14.5728 107.076 14.8135 106.693 15.2021C106.31 15.5872 106.026 16.0824 105.848 16.6841C105.67 17.2859 105.495 18.1731 105.327 19.3388C105.064 21.3916 105.033 22.7121 105.228 23.2932C105.427 23.8778 105.964 24.1701 106.847 24.1701C107.71 24.1701 108.552 23.9294 109.38 23.4479C110.198 22.9734 111.129 22.2341 112.159 21.2335Z" fill="#47A138"/>
<path d="M121.301 12.417L121.161 15.3846C123.636 13.1632 125.802 12.0491 127.657 12.0491C128.821 12.0491 129.701 12.3826 130.3 13.0532C130.899 13.7237 131.104 14.6796 130.919 15.921L129.458 26.206H126.757L128.078 16.5984C128.191 15.7319 128.157 15.1438 127.979 14.8309C127.801 14.5215 127.411 14.3633 126.812 14.3633C126.042 14.3633 125.241 14.6005 124.406 15.0682C123.571 15.5393 122.479 16.313 121.13 17.3858L119.922 26.2025H117.194L119.135 12.4136H121.301V12.417Z" fill="#47A138"/>
<path d="M142.902 12.4169H145.688C144.901 14.8858 143.381 16.9284 141.133 18.548C141.413 18.9812 141.694 19.528 141.978 20.1882L144.651 26.2058H141.725L139.082 19.8478C138.237 20.3017 137.152 20.8278 135.821 21.4296L135.119 26.2058H132.418L135.174 6.42676H137.902L136.663 15.6939C136.495 16.8252 136.194 17.9531 135.762 19.0844C137.542 18.2351 139.086 17.2447 140.39 16.1031C141.687 14.9649 142.526 13.7373 142.902 12.4169Z" fill="#47A138"/>
<path d="M20.1667 6.53687H6.69141V20.0748H20.1667V6.53687Z" fill="#47A138"/>
<path d="M6.64704 0H0.0925293V6.49216H6.64704V0Z" fill="#47A138"/>
<path d="M26.581 0H20.1189V6.49216H26.581V0Z" fill="#47A138"/>
<path d="M33.1492 26.2057L35.8771 6.70864C37.3968 6.55734 39.5154 6.48169 42.2331 6.48169C44.6153 6.48169 46.265 6.85994 47.1823 7.613C48.0996 8.36607 48.4214 9.72433 48.1373 11.6809C47.9319 13.0942 47.528 14.1499 46.929 14.8445C46.3301 15.5425 45.4367 15.9483 44.2559 16.0583L44.2285 16.1993C46.8161 16.4056 47.8669 18.1593 47.3774 21.457C47.0762 23.417 46.4396 24.734 45.4641 25.4114C44.4886 26.0888 42.8765 26.4293 40.6278 26.4293C37.3489 26.4327 34.8571 26.357 33.1492 26.2057ZM36.2159 24.005L40.2102 24.0325C41.747 24.0325 42.8252 23.8124 43.4447 23.3689C44.0642 22.9253 44.4681 22.0553 44.6529 20.7555C44.8412 19.3628 44.694 18.4241 44.2183 17.9427C43.7391 17.4613 42.7431 17.2137 41.2234 17.1931H37.1743L36.2159 24.005ZM37.4823 15.0164H41.3637C42.7123 15.0164 43.6843 14.7894 44.2764 14.339C44.8686 13.8885 45.2553 13.0392 45.4436 11.7944C45.6113 10.6081 45.4607 9.82749 44.9918 9.44924C44.5229 9.07443 43.5577 8.8853 42.0962 8.8853H38.3278L37.4823 15.0164Z" fill="#47A138"/>
<path d="M60.377 12.417H63.2179C62.2047 16.901 60.8836 20.6973 59.2509 23.8058C57.7894 26.5945 56.3382 28.5718 54.9041 29.7409C53.47 30.91 51.7586 31.6631 49.77 32.0001L49.2634 30.0504C50.4648 29.7684 51.5122 29.3454 52.4123 28.7781C53.3125 28.2141 54.175 27.3545 54.9999 26.206H53.7335C53.3022 26.206 52.936 26.0891 52.6382 25.8518C52.337 25.618 52.1488 25.2913 52.0769 24.8752L49.4346 12.4136H52.3062L54.3872 23.5754C54.442 23.8952 54.6303 24.0568 54.9486 24.0568H56.3279C56.4032 23.9261 56.5059 23.7301 56.636 23.4791C56.766 23.2247 56.8516 23.0596 56.8893 22.984C58.539 19.5384 59.7027 16.0173 60.377 12.417Z" fill="#47A138"/>
<path d="M68.8139 14.5351L67.7152 22.2789C67.6228 22.9391 67.6809 23.3861 67.8966 23.62C68.1122 23.8572 68.5469 23.9741 69.2041 23.9741H71.2577L71.3706 26.0923C70.5458 26.3365 69.4779 26.4603 68.1635 26.4603C66.9451 26.4603 66.0688 26.1199 65.5349 25.4424C65.001 24.765 64.8161 23.7953 64.9873 22.5334L66.1133 14.5351H63.6113L63.8646 12.5579L66.4248 12.4169L67.0169 8.37646H69.6901L69.1288 12.4169H73.349L73.0683 14.5351H68.8139Z" fill="#47A138"/>
<path d="M84.651 23.9192L84.8187 25.7555C83.4873 26.2816 81.6013 26.5464 79.1644 26.5464C76.8198 26.5464 75.1974 25.9308 74.2973 24.6964C73.3971 23.4619 73.1164 21.5466 73.4518 18.947C73.8078 16.2923 74.5334 14.4767 75.6321 13.507C76.7274 12.5373 78.5346 12.0525 81.0469 12.0525C83.1861 12.0525 84.6373 12.4307 85.4074 13.1838C86.1775 13.9369 86.4582 15.0475 86.2528 16.5193C86.0269 17.8569 85.5032 18.8232 84.6784 19.4146C83.8535 20.0095 82.5871 20.3706 80.8826 20.5012L76.1284 20.9242C76.1079 22.224 76.3817 23.1043 76.943 23.5651C77.5043 24.0258 78.3874 24.2562 79.5854 24.2562C80.862 24.2562 82.5494 24.1462 84.651 23.9192ZM76.2961 18.8885L80.8826 18.4656C81.7451 18.4105 82.3749 18.2249 82.7685 17.9154C83.1621 17.6059 83.4154 17.0626 83.5283 16.2889C83.6413 15.4052 83.4941 14.8584 83.0937 14.6487C82.6898 14.4423 81.8717 14.3392 80.6327 14.3392C79.2089 14.3392 78.1992 14.6349 77.6104 15.2298C77.0149 15.8212 76.5768 17.042 76.2961 18.8885Z" fill="#47A138"/>
<path d="M92.5538 6.42676L91.794 12.1349C91.6263 13.3797 91.3799 14.4319 91.0615 15.2985C91.9617 14.3941 92.9509 13.6307 94.029 13.0083C95.1072 12.3859 96.1066 12.0764 97.0239 12.0764C98.1123 12.0764 98.9475 12.2793 99.5259 12.6851C100.108 13.0908 100.519 13.8439 100.765 14.9443C101.008 16.0446 100.97 17.5576 100.652 19.4798C100.447 21.0238 100.156 22.2823 99.7792 23.252C99.4027 24.2217 98.9167 24.9438 98.3177 25.4149C97.7187 25.886 97.1095 26.1955 96.49 26.3468C95.8705 26.4981 95.073 26.5738 94.1009 26.5738C91.8145 26.5738 89.5076 26.2333 87.1802 25.5559L89.8533 6.42676H92.5538ZM91.0068 17.4476L90.0792 24.2286C91.4278 24.2836 92.4306 24.3146 93.0878 24.3146C94.8676 24.3146 96.0416 24.0292 96.6029 23.4515C97.1643 22.8772 97.5955 21.488 97.8967 19.2838C98.1603 17.231 98.1876 15.9105 97.9823 15.326C97.7769 14.7414 97.243 14.4491 96.3804 14.4491C95.049 14.4525 93.2589 15.4498 91.0068 17.4476Z" fill="#47A138"/>
<path d="M114.213 26.2057H112.074L112.187 23.6611C110.537 25.5833 108.569 26.5427 106.279 26.5427C104.609 26.5427 103.486 25.996 102.904 24.9025C102.322 23.809 102.22 21.8868 102.596 19.1393C102.801 17.6126 103.092 16.3643 103.469 15.3946C103.845 14.4249 104.342 13.7028 104.961 13.2317C105.581 12.7606 106.217 12.4443 106.875 12.2861C107.532 12.1279 108.374 12.0454 109.407 12.0454C111.639 12.0454 113.881 12.2896 116.13 12.7813L114.213 26.2057ZM112.159 21.2335L113.145 14.394C111.42 14.3562 110.455 14.339 110.249 14.339C109.274 14.339 108.535 14.3871 108.028 14.48C107.521 14.5728 107.076 14.8135 106.693 15.2021C106.31 15.5872 106.026 16.0824 105.848 16.6841C105.67 17.2859 105.495 18.1731 105.327 19.3388C105.064 21.3916 105.033 22.7121 105.228 23.2932C105.427 23.8778 105.964 24.1701 106.847 24.1701C107.71 24.1701 108.552 23.9294 109.38 23.4479C110.198 22.9734 111.129 22.2341 112.159 21.2335Z" fill="#47A138"/>
<path d="M121.301 12.417L121.161 15.3846C123.636 13.1632 125.802 12.0491 127.657 12.0491C128.821 12.0491 129.701 12.3826 130.3 13.0532C130.899 13.7237 131.104 14.6796 130.919 15.921L129.458 26.206H126.757L128.078 16.5984C128.191 15.7319 128.157 15.1438 127.979 14.8309C127.801 14.5215 127.411 14.3633 126.812 14.3633C126.042 14.3633 125.241 14.6005 124.406 15.0682C123.571 15.5393 122.479 16.313 121.13 17.3858L119.922 26.2025H117.194L119.135 12.4136H121.301V12.417Z" fill="#47A138"/>
<path d="M142.902 12.4169H145.688C144.901 14.8858 143.381 16.9284 141.133 18.548C141.413 18.9812 141.694 19.528 141.978 20.1882L144.651 26.2058H141.725L139.082 19.8478C138.237 20.3017 137.152 20.8278 135.821 21.4296L135.119 26.2058H132.418L135.174 6.42676H137.902L136.663 15.6939C136.495 16.8252 136.194 17.9531 135.762 19.0844C137.542 18.2351 139.086 17.2447 140.39 16.1031C141.687 14.9649 142.526 13.7373 142.902 12.4169Z" fill="#47A138"/>
<path d="M13.4753 20.03H0V26.8007H13.4753V20.03Z" fill="#47A138"/>
<path d="M20.4753 7H7V20.5379H20.4753V7Z" fill="#47A138"/>
<path d="M6.64704 0H0.0925293V6.49216H6.64704V0Z" fill="#47A138"/>
<path d="M26.5808 0H20.1187V6.49216H26.5808V0Z" fill="#47A138"/>
</svg>
